<svg width="411" height="181" viewBox="0 0 411 181" fill="none" xmlns="http://www.w3.org/2000/svg">
<path fill-rule="evenodd" clip-rule="evenodd" d="M405.247 -119L411 -115.995V150.029C374.767 150.886 337.777 145.642 309.457 126.579C279.774 106.599 259.614 71.4371 239.455 36.2755C219.295 1.1139 199.136 -34.0477 169.453 -54.028C127.186 -82.4785 65.6104 -80.1477 0 -71.3858L0 -119H405.247Z" fill="#F9AA33"/>
<path fill-rule="evenodd" clip-rule="evenodd" d="M411 -14.1294C395.194 2.95663 371.638 21.3764 335.934 29.3676C308.593 35.4871 274.327 35.2132 240.06 34.9392C205.794 34.6652 171.528 34.3912 144.187 40.5107C89.5048 52.7497 63.3162 89.4505 36.7308 126.707C24.0155 144.527 11.391 162.219 0 181V-35H411V-14.1294Z" fill="#287CFA"/>
</svg>
